# xmcd
#
# Track frame offsets:
#	150
#	25292
#	49759
#	74101
#	96362
#	115664
#	138947
#	164261
#	182365
#	206169
#	223874
#	247564
#	266800
#	305501
#
# Disc length: 4396 seconds
#
# Revision: 1
# Processed by: cddbd v1.5.2PL0 Copyright (c) Steve Scherf et al.
# Submitted via: audiograbber 1.83.01
#
DISCID=cc112a0e
DTITLE=Leo Gillespie - Lost in Laos
DYEAR=2005
DGENRE=
TTITLE0=By the Cambodian Border.
TTITLE1=Elementary angel
TTITLE2=Lost in Laos
TTITLE3=Temple of the blues
TTITLE4=I'm a rambler
TTITLE5=Merci bien Montreal
TTITLE6=Fort Worth blues
TTITLE7=The Capitol
TTITLE8=Let the inside out
TTITLE9=Wrong train
TTITLE10=Lakes of Ponchertrain
TTITLE11=Only the blues
TTITLE12=Trip to Siem Reap
TTITLE13=The dice
EXTD=
EXTT0=
EXTT1=
EXTT2=
EXTT3=
EXTT4=
EXTT5=
EXTT6=
EXTT7=
EXTT8=
EXTT9=
EXTT10=
EXTT11=
EXTT12=
EXTT13=
PLAYORDER=
